<svg xmlns="http://www.w3.org/2000/svg" version="1.1" xmlns:xlink="http://www.w3.org/1999/xlink" xmlns:svgjs="http://svgjs.dev/svgjs" width="1500" height="1505" viewBox="0 0 1500 1505"><g transform="matrix(1,0,0,1,0,-2.6772794183315227)"><svg viewBox="0 0 280 281" data-background-color="#a9a69e" preserveAspectRatio="xMidYMid meet" height="1505" width="1500" xmlns="http://www.w3.org/2000/svg" xmlns:xlink="http://www.w3.org/1999/xlink"><g id="tight-bounds" transform="matrix(1,0,0,1,0,0.49987741963531107)"><svg viewBox="0 0 280 280" height="280" width="280"><g><svg viewBox="0 0 280 280" height="280" width="280"><g><svg viewBox="0 0 280 280" height="280" width="280"><g id="textblocktransform"><svg viewBox="0 0 280 280" height="280" width="280" id="textblock"><g><svg viewBox="0 0 280 280" height="280" width="280"><g transform="matrix(1,0,0,1,90.50252531694167,90.50252531694167)"><svg viewBox="0 0 98.99494936611666 98.99494936611666" height="98.99494936611666" width="98.99494936611666"><g id="icon-0"><svg xmlns="http://www.w3.org/2000/svg" xmlns:xlink="http://www.w3.org/1999/xlink" version="1.1" x="0" y="0" viewBox="0.5 0.5 96 96" enable-background="new 0 0 97 97" xml:space="preserve" height="98.99494936611666" width="98.99494936611666" class="icon-jxe-0" data-fill-palette-color="accent" id="jxe-0"><g fill="#647576" data-fill-palette-color="accent"><path fill="#647576" d="M96.5 37.6L95.8 36 81.9 2.5 82 2.4 81.7 1.9V1.8L81 0.6H80.7L80.6 0.5H14L0.8 36.8C0.7 37 0.7 37.2 0.7 37.4 0.6 37.7 0.5 37.9 0.5 38.2V96.4H75.4V77C75.4 76.7 75.6 76.5 75.9 76.5H83.4C83.7 76.5 83.9 76.7 83.9 77V96.5H96.5zM79.7 7.7L91.5 36H67.8L79.7 7.8zM20.7 12.1C20.7 13.6 21.9 14.8 23.4 14.8S26.1 13.6 26.1 12.1H30.4C30.4 13.6 31.6 14.8 33.1 14.8S35.8 13.6 35.8 12.1H40.2C40.2 13.6 41.4 14.8 42.9 14.8S45.6 13.6 45.6 12.1H50C50 13.6 51.2 14.8 52.7 14.8S55.4 13.6 55.4 12.1H59.8C59.8 13.6 61 14.8 62.5 14.8S65.2 13.6 65.2 12.1H69.2C69.2 15.8 66.2 18.8 62.5 18.8 60.6 18.8 58.8 18 57.6 16.7 56.4 18 54.6 18.8 52.7 18.8S49 18 47.8 16.7C46.6 18 44.8 18.8 42.9 18.8S39.2 18 38 16.7C36.8 18 35 18.8 33.1 18.8S29.4 18 28.2 16.7C27 18 25.2 18.8 23.3 18.8 19.6 18.8 16.6 15.8 16.6 12.1zM15.6 24.7C15.6 26.2 16.8 27.4 18.3 27.4S21 26.2 21 24.7H25.4C25.4 26.2 26.6 27.4 28.1 27.4S30.8 26.2 30.8 24.7H35.2C35.2 26.2 36.4 27.4 37.9 27.4S40.6 26.2 40.6 24.7H45C45 26.2 46.2 27.4 47.7 27.4S50.4 26.2 50.4 24.7H54.8C54.8 26.2 56 27.4 57.5 27.4S60.2 26.2 60.2 24.7H64.2C64.2 28.4 61.2 31.4 57.5 31.4 55.6 31.4 53.8 30.6 52.6 29.3 51.4 30.6 49.6 31.4 47.7 31.4S44 30.6 42.8 29.3C41.6 30.6 39.8 31.4 37.9 31.4S34.2 30.6 33 29.3C31.8 30.6 30 31.4 28.1 31.4S24.4 30.6 23.2 29.3C22 30.6 20.2 31.4 18.3 31.4 14.6 31.4 11.6 28.4 11.6 24.7zM4.5 92.5V40H62.8V92.5z" data-fill-palette-color="accent"></path><path fill="#647576" d="M79.6 31.7C82.2 31.7 84.3 29.6 84.3 27S82.2 22.3 79.6 22.3 74.9 24.4 74.9 27 77 31.7 79.6 31.7" data-fill-palette-color="accent"></path><rect x="19.1" y="51.7" fill="#647576" width="12.6" height="12.6" data-fill-palette-color="accent"></rect><rect x="35.6" y="51.7" fill="#647576" width="12.6" height="12.6" data-fill-palette-color="accent"></rect><rect x="35.6" y="68.2" fill="#647576" width="12.6" height="12.6" data-fill-palette-color="accent"></rect><rect x="19.1" y="68.2" fill="#647576" width="12.6" height="12.6" data-fill-palette-color="accent"></rect></g></svg></g></svg></g><g id="text-0"><path d="M30.566 100.493v0c-0.633 1.906-1.631 3.426-2.994 4.561-1.363 1.135-2.965 1.825-4.806 2.072-1.841 0.247-3.791 0.028-5.852-0.657v0c-1.932-0.641-3.566-1.62-4.903-2.936-1.336-1.316-2.231-2.864-2.683-4.644-0.453-1.78-0.35-3.662 0.309-5.646v0c0.376-1.133 0.811-2.097 1.303-2.892 0.493-0.794 1.065-1.527 1.716-2.197v0l2.591 2.019c-0.6 0.602-1.093 1.203-1.479 1.804-0.386 0.601-0.711 1.301-0.976 2.099v0c-0.599 1.803-0.451 3.532 0.444 5.188 0.895 1.655 2.488 2.864 4.781 3.625v0c1.391 0.462 2.739 0.623 4.043 0.485 1.304-0.139 2.443-0.554 3.416-1.247 0.973-0.692 1.665-1.656 2.076-2.893v0c0.325-0.979 0.493-1.852 0.506-2.62 0.012-0.768-0.056-1.62-0.203-2.555v0l3.296-0.107c0.173 0.944 0.223 1.954 0.151 3.032-0.072 1.077-0.317 2.247-0.736 3.509z" fill="#dceada" data-fill-palette-color="primary"></path><path d="M50.28 66.561v0c-1.257 1.567-2.751 2.682-4.483 3.345-1.732 0.663-3.534 0.828-5.405 0.493-1.871-0.335-3.653-1.182-5.347-2.54v0c-1.779-1.426-3.025-3.017-3.74-4.773-0.714-1.756-0.92-3.538-0.616-5.348 0.303-1.81 1.074-3.487 2.314-5.033v0c1.24-1.546 2.705-2.658 4.397-3.336 1.692-0.678 3.472-0.869 5.339-0.572 1.867 0.297 3.679 1.15 5.436 2.559v0c1.757 1.409 2.999 2.996 3.723 4.761 0.725 1.764 0.951 3.554 0.677 5.37-0.273 1.816-1.038 3.507-2.295 5.074zM47.74 64.523v0c1.341-1.673 1.819-3.429 1.433-5.269-0.386-1.84-1.478-3.482-3.278-4.925v0c-1.101-0.883-2.299-1.461-3.593-1.734-1.295-0.273-2.541-0.237-3.739 0.107-1.198 0.344-2.204 1.024-3.019 2.041v0c-1.341 1.673-1.835 3.416-1.482 5.231 0.354 1.815 1.441 3.452 3.262 4.912v0c1.101 0.883 2.309 1.469 3.626 1.759 1.316 0.29 2.573 0.263 3.77-0.081 1.198-0.344 2.204-1.024 3.02-2.041z" fill="#dceada" data-fill-palette-color="primary"></path><path d="M82.983 38.955v0c-1.749 1.041-3.475 1.286-5.176 0.735-1.702-0.551-3.191-1.899-4.468-4.046v0l-5.079-8.537-3.149 1.874-1.623-2.729 3.219-1.916-2.749-6.133 2.414-1.436 3.414 5.738 5.038-2.998 1.624 2.729-5.039 2.998 5.225 8.782c0.805 1.353 1.653 2.128 2.543 2.324 0.891 0.196 1.733 0.059 2.526-0.413v0c0.583-0.347 1.082-0.77 1.495-1.269 0.414-0.499 0.766-1.008 1.057-1.529v0l2.373 1.999c-0.3 0.557-0.767 1.206-1.4 1.946-0.633 0.74-1.382 1.367-2.245 1.881z" fill="#dceada" data-fill-palette-color="primary"></path><path d="M117.468 26.257v0c-1.987 0.444-3.702 0.14-5.148-0.913-1.445-1.053-2.441-2.798-2.986-5.235v0l-2.168-9.694-3.576 0.799-0.693-3.098 3.655-0.818-0.703-6.685 2.742-0.613 1.457 6.516 5.721-1.28 0.694 3.099-5.722 1.28 2.231 9.972c0.344 1.536 0.908 2.536 1.694 3 0.785 0.464 1.628 0.595 2.528 0.394v0c0.662-0.148 1.268-0.395 1.816-0.74 0.549-0.345 1.042-0.72 1.48-1.124v0l1.633 2.639c-0.459 0.436-1.104 0.908-1.936 1.413-0.832 0.506-1.739 0.869-2.719 1.088z" fill="#dceada" data-fill-palette-color="primary"></path><path d="M153.841 25.152v0c-1.753-0.202-3.292-0.829-4.619-1.884-1.327-1.054-2.321-2.446-2.983-4.175-0.662-1.729-0.865-3.699-0.611-5.91v0c0.242-2.103 0.884-3.942 1.925-5.516 1.042-1.574 2.367-2.767 3.977-3.579 1.61-0.812 3.385-1.106 5.327-0.883v0c1.213 0.14 2.288 0.475 3.224 1.006 0.936 0.531 1.732 1.149 2.389 1.853v0l0.196-1.699 3.316 0.382-1.833 15.935c-0.118 1.025 0.055 1.721 0.518 2.088 0.463 0.367 0.991 0.585 1.585 0.654v0l-1.094 2.742c-2.588-0.298-4.031-1.529-4.329-3.694v0c-0.719 0.791-1.653 1.483-2.8 2.075-1.147 0.592-2.543 0.793-4.188 0.605zM155.022 22.009v0c1.025 0.118 2.024-0.02 2.998-0.413 0.974-0.393 1.815-0.932 2.522-1.616v0l1.298-11.284c-0.669-0.596-1.424-1.1-2.265-1.51-0.841-0.411-1.746-0.672-2.717-0.784v0c-1.294-0.149-2.471 0.05-3.531 0.598-1.06 0.547-1.941 1.375-2.642 2.482-0.701 1.108-1.142 2.444-1.322 4.008v0c-0.174 1.51-0.045 2.884 0.387 4.122 0.431 1.238 1.108 2.245 2.029 3.02 0.922 0.775 2.003 1.234 3.243 1.377z" fill="#dceada" data-fill-palette-color="primary"></path><path d="M191.697 46.417v0c-1.103-0.585-2.106-1.285-3.01-2.102-0.903-0.817-1.623-1.705-2.158-2.665v0l2.674-2.177c0.334 0.761 0.805 1.494 1.414 2.201 0.609 0.706 1.464 1.352 2.567 1.937v0c1.703 0.902 3.278 1.161 4.726 0.777 1.448-0.385 2.693-1.56 3.735-3.527v0l1.22-2.302c-0.785 0.321-1.763 0.502-2.936 0.54-1.173 0.039-2.382-0.272-3.629-0.933v0c-1.415-0.75-2.564-1.827-3.447-3.232-0.883-1.405-1.346-3.025-1.388-4.859-0.042-1.834 0.465-3.747 1.52-5.737v0c0.991-1.871 2.264-3.331 3.819-4.381 1.555-1.05 3.214-1.645 4.978-1.785 1.764-0.14 3.437 0.209 5.02 1.048v0c1.055 0.559 1.919 1.247 2.592 2.064 0.673 0.817 1.181 1.655 1.525 2.513v0l0.762-1.438 2.95 1.563-9.685 18.274c-1.093 2.062-2.342 3.55-3.748 4.464-1.406 0.914-2.909 1.33-4.51 1.25-1.601-0.08-3.264-0.578-4.991-1.493zM198.545 35.67v0c0.959 0.508 1.937 0.75 2.933 0.725 0.996-0.025 1.887-0.198 2.671-0.519v0l5.186-9.785c-0.324-0.663-0.775-1.348-1.354-2.054-0.578-0.706-1.359-1.319-2.342-1.84v0c-0.983-0.521-2.046-0.747-3.189-0.676-1.143 0.07-2.248 0.46-3.315 1.169-1.067 0.709-1.982 1.783-2.745 3.222v0c-0.724 1.367-1.084 2.697-1.078 3.99 0.006 1.293 0.294 2.444 0.865 3.453 0.571 1.009 1.36 1.781 2.368 2.315z" fill="#dceada" data-fill-palette-color="primary"></path><path d="M229.974 66.71v0c-1.977-2.309-2.807-4.77-2.489-7.382 0.318-2.613 1.806-5.058 4.465-7.335v0c1.608-1.377 3.306-2.304 5.095-2.782 1.789-0.478 3.517-0.483 5.184-0.018 1.668 0.466 3.119 1.42 4.355 2.864v0c1.324 1.546 2.088 3.116 2.292 4.71 0.204 1.594-0.04 3.134-0.733 4.621-0.692 1.486-1.719 2.812-3.079 3.978v0c-0.722 0.618-1.449 1.187-2.183 1.707v0l-9.639-11.256c-1.346 1.474-2.071 3.006-2.174 4.596-0.104 1.59 0.453 3.096 1.671 4.519v0c0.794 0.928 1.607 1.679 2.439 2.253 0.831 0.574 1.693 1.069 2.585 1.485v0l-1.825 2.688c-0.965-0.46-1.954-1.061-2.965-1.803-1.011-0.742-2.011-1.691-2.999-2.845zM235.473 53.853v0l7.547 8.813c1.567-1.342 2.437-2.766 2.612-4.273 0.174-1.507-0.33-2.951-1.513-4.332v0c-1.024-1.196-2.289-1.828-3.794-1.897-1.506-0.068-3.123 0.495-4.852 1.689z" fill="#dceada" data-fill-palette-color="primary"></path><path d="M249.563 100.979v0c-0.558-1.501-0.87-2.927-0.937-4.277-0.067-1.35 0.058-2.533 0.375-3.549v0l3.401 0.387c-0.314 0.869-0.469 1.875-0.464 3.017 0.004 1.142 0.219 2.286 0.644 3.431v0c0.529 1.425 1.164 2.412 1.904 2.963 0.74 0.55 1.479 0.688 2.217 0.414v0c0.534-0.198 0.955-0.507 1.263-0.925 0.308-0.418 0.527-1.057 0.657-1.916 0.13-0.859 0.173-2.048 0.13-3.567v0c-0.054-2.094 0.186-3.768 0.718-5.022 0.533-1.255 1.575-2.17 3.127-2.747v0c1.527-0.567 3.066-0.379 4.618 0.565 1.552 0.944 2.768 2.598 3.647 4.964v0c0.473 1.272 0.76 2.454 0.861 3.546 0.101 1.091 0.095 2.107-0.019 3.047v0l-3.179 0.095c0.152-0.838 0.192-1.743 0.121-2.716-0.072-0.972-0.306-1.993-0.703-3.061v0c-0.491-1.323-1.132-2.229-1.922-2.717-0.789-0.488-1.502-0.615-2.138-0.379v0c-0.611 0.227-1.033 0.688-1.267 1.383-0.234 0.695-0.317 1.913-0.249 3.654v0c0.096 2.831-0.18 4.931-0.83 6.302-0.649 1.37-1.737 2.339-3.264 2.906v0c-1.781 0.662-3.454 0.465-5.018-0.59-1.564-1.055-2.796-2.791-3.693-5.208z" fill="#dceada" data-fill-palette-color="primary"></path><path d="M9.085 188.835v0c-0.595-1.811-0.694-3.536-0.297-5.173 0.404-1.64 1.236-3.074 2.497-4.303 1.267-1.23 2.88-2.168 4.841-2.811v0c1.837-0.604 3.639-0.781 5.406-0.533 1.761 0.25 3.318 0.924 4.671 2.022 1.356 1.105 2.344 2.601 2.964 4.49v0c0.354 1.077 0.565 2.057 0.634 2.941 0.076 0.882 0.055 1.764-0.063 2.646v0l-3.118-0.068c0.115-0.802 0.15-1.542 0.106-2.221-0.044-0.678-0.19-1.394-0.438-2.148v0c-0.563-1.715-1.655-2.952-3.277-3.713-1.619-0.754-3.518-0.773-5.696-0.057v0c-1.328 0.436-2.45 1.076-3.366 1.92-0.916 0.844-1.551 1.802-1.905 2.875-0.352 1.08-0.335 2.21 0.053 3.39v0c0.305 0.928 0.673 1.689 1.104 2.283 0.422 0.59 0.955 1.2 1.598 1.832v0l-2.455 1.953c-0.669-0.623-1.281-1.368-1.837-2.235-0.554-0.861-1.028-1.891-1.422-3.09z" fill="#dceada" data-fill-palette-color="primary"></path><path d="M32.533 230.026v0c-1.19-1.49-1.911-3.106-2.165-4.849-0.248-1.747-0.026-3.453 0.668-5.118 0.703-1.664 1.861-3.14 3.473-4.426v0c1.692-1.35 3.426-2.175 5.202-2.473 1.776-0.298 3.472-0.115 5.087 0.549 1.616 0.654 3.011 1.716 4.184 3.185v0c1.177 1.474 1.901 3.067 2.173 4.777 0.277 1.706 0.083 3.394-0.582 5.062-0.665 1.668-1.833 3.169-3.504 4.503v0c-1.676 1.338-3.407 2.16-5.194 2.466-1.782 0.302-3.484 0.138-5.108-0.493-1.633-0.632-3.045-1.693-4.234-3.183zM34.951 228.095v0c1.27 1.591 2.802 2.4 4.594 2.427 1.783 0.026 3.532-0.644 5.245-2.011v0c1.05-0.838 1.835-1.829 2.354-2.974 0.524-1.139 0.75-2.301 0.68-3.486-0.066-1.181-0.486-2.256-1.26-3.227v0c-1.27-1.591-2.784-2.41-4.541-2.457-1.757-0.047-3.5 0.619-5.228 1.999v0c-1.05 0.838-1.847 1.835-2.392 2.991-0.541 1.161-0.778 2.332-0.713 3.512 0.07 1.186 0.49 2.261 1.261 3.226z" fill="#dceada" data-fill-palette-color="primary"></path><path d="M71.238 262.996v0c-1.661-0.991-2.646-2.326-2.956-4.004-0.308-1.669 0.145-3.52 1.358-5.554v0l4.835-8.102-2.989-1.784 1.549-2.596 3.059 1.826 3.878-5.07 2.29 1.366-3.249 5.446 4.781 2.852-1.549 2.596-4.781-2.853-4.97 8.33c-0.768 1.288-1.033 2.347-0.794 3.177 0.236 0.836 0.73 1.478 1.482 1.927v0c0.554 0.33 1.135 0.555 1.743 0.673 0.6 0.121 1.185 0.186 1.757 0.195v0l-0.599 2.89c-0.599-0.002-1.354-0.101-2.264-0.297-0.905-0.192-1.765-0.532-2.581-1.018z" fill="#dceada" data-fill-palette-color="primary"></path><path d="M112.654 278.482v0c-1.888-0.419-3.243-1.377-4.065-2.872-0.817-1.488-0.968-3.388-0.455-5.7v0l2.045-9.211-3.398-0.754 0.655-2.951 3.478 0.772 2.089-6.032 2.603 0.578-1.374 6.191 5.435 1.206-0.655 2.951-5.435-1.206-2.102 9.469c-0.325 1.464-0.243 2.552 0.245 3.265 0.487 0.72 1.157 1.174 2.012 1.364v0c0.629 0.14 1.252 0.17 1.866 0.091 0.607-0.074 1.183-0.196 1.729-0.366v0l0.34 2.932c-0.57 0.186-1.317 0.33-2.243 0.43-0.919 0.102-1.843 0.05-2.77-0.157z" fill="#dceada" data-fill-palette-color="primary"></path><path d="M156.878 279.934v0c-1.664 0.198-3.224-0.048-4.679-0.736-1.461-0.681-2.685-1.748-3.67-3.203-0.993-1.454-1.614-3.232-1.864-5.334v0c-0.237-1.994-0.045-3.835 0.575-5.521 0.614-1.679 1.576-3.071 2.886-4.176 1.311-1.105 2.889-1.768 4.735-1.987v0c1.152-0.137 2.217-0.062 3.194 0.226 0.984 0.286 1.858 0.685 2.622 1.195v0l-0.192-1.617 3.144-0.373 1.796 15.13c0.116 0.977 0.43 1.582 0.943 1.815 0.507 0.24 1.043 0.327 1.61 0.26v0l-0.419 2.776c-2.453 0.291-4.053-0.53-4.802-2.464v0c-0.496 0.886-1.209 1.729-2.139 2.53-0.93 0.801-2.176 1.294-3.74 1.479zM157.281 276.77v0c0.977-0.116 1.872-0.465 2.685-1.046 0.813-0.575 1.47-1.254 1.971-2.038v0l-1.273-10.724c-0.745-0.404-1.553-0.704-2.423-0.901-0.863-0.191-1.756-0.232-2.68-0.123v0c-1.226 0.146-2.271 0.587-3.132 1.326-0.862 0.738-1.497 1.695-1.904 2.87-0.399 1.182-0.511 2.514-0.335 3.996v0c0.17 1.435 0.588 2.677 1.252 3.726 0.671 1.048 1.519 1.829 2.543 2.342 1.019 0.521 2.117 0.712 3.296 0.572z" fill="#dceada" data-fill-palette-color="primary"></path><path d="M210.8 271.452v0c-1.047 0.56-2.131 0.978-3.253 1.256-1.128 0.28-2.212 0.375-3.252 0.285v0l-0.29-3.262c0.775 0.14 1.601 0.159 2.478 0.06 0.88-0.109 1.844-0.444 2.892-1.004v0c1.615-0.864 2.657-1.967 3.123-3.31 0.458-1.345 0.189-2.948-0.806-4.809v0l-1.171-2.19c-0.16 0.794-0.536 1.66-1.126 2.599-0.593 0.948-1.479 1.738-2.658 2.368v0c-1.34 0.717-2.8 1.051-4.38 1.004-1.574-0.051-3.096-0.545-4.567-1.482-1.465-0.94-2.703-2.356-3.714-4.246v0c-0.947-1.771-1.424-3.547-1.431-5.329-0.001-1.785 0.412-3.41 1.237-4.875 0.825-1.465 1.988-2.599 3.49-3.401v0c0.999-0.534 2-0.85 3.002-0.948 1.002-0.097 1.931-0.052 2.786 0.137v0l-0.73-1.364 2.8-1.498 9.265 17.322c1.046 1.957 1.557 3.731 1.53 5.322-0.023 1.597-0.49 3.005-1.4 4.223-0.917 1.221-2.192 2.269-3.825 3.142zM205.96 260.352v0c0.909-0.486 1.617-1.127 2.124-1.921 0.509-0.803 0.845-1.599 1.009-2.386v0l-4.964-9.28c-0.695-0.09-1.472-0.098-2.332-0.023-0.863 0.084-1.761 0.376-2.694 0.876v0c-0.933 0.499-1.677 1.216-2.232 2.151-0.545 0.938-0.822 2.017-0.83 3.238-0.006 1.211 0.356 2.499 1.085 3.863v0c0.694 1.298 1.552 2.29 2.572 2.976 1.023 0.676 2.083 1.06 3.179 1.151 1.098 0.082 2.126-0.133 3.083-0.645z" fill="#dceada" data-fill-palette-color="primary"></path><path d="M247.263 230.417v0c-1.867 2.197-4.051 3.342-6.552 3.435-2.5 0.092-5.018-0.938-7.551-3.091v0c-1.53-1.301-2.655-2.755-3.373-4.362-0.718-1.607-0.982-3.23-0.792-4.868 0.185-1.632 0.862-3.136 2.031-4.511v0c1.252-1.474 2.612-2.424 4.079-2.852 1.462-0.432 2.942-0.434 4.44-0.006 1.498 0.427 2.896 1.192 4.194 2.295v0c0.688 0.584 1.333 1.182 1.936 1.792v0l-9.115 10.726c1.582 1.041 3.125 1.494 4.63 1.357 1.51-0.142 2.84-0.89 3.992-2.245v0c0.751-0.884 1.335-1.76 1.75-2.626 0.411-0.871 0.743-1.755 0.998-2.651v0l2.8 1.31c-0.287 0.976-0.702 1.995-1.247 3.055-0.545 1.06-1.285 2.141-2.22 3.242zM234.378 227.174v0l7.138-8.4c-1.494-1.27-2.961-1.87-4.4-1.801-1.439 0.059-2.719 0.748-3.839 2.066v0c-0.967 1.138-1.368 2.417-1.205 3.838 0.159 1.426 0.928 2.859 2.306 4.297z" fill="#dceada" data-fill-palette-color="primary"></path><path d="M270.792 189.08v0c-0.522 1.427-1.176 2.651-1.961 3.672-0.783 1.014-1.605 1.79-2.466 2.327v0l-2.221-2.373c0.766-0.435 1.499-1.066 2.2-1.894 0.7-0.828 1.25-1.786 1.648-2.876v0c0.497-1.357 0.649-2.465 0.457-3.323-0.194-0.851-0.645-1.406-1.352-1.665v0c-0.503-0.184-0.996-0.22-1.478-0.107-0.482 0.113-1.034 0.438-1.658 0.976-0.625 0.544-1.389 1.378-2.291 2.5v0c-1.253 1.55-2.458 2.612-3.615 3.186-1.159 0.58-2.477 0.6-3.956 0.059v0c-1.453-0.532-2.451-1.616-2.993-3.252-0.541-1.643-0.399-3.589 0.423-5.839v0c0.443-1.211 0.966-2.244 1.568-3.1 0.6-0.85 1.232-1.58 1.896-2.189v0l2.353 1.89c-0.629 0.514-1.217 1.144-1.764 1.891-0.548 0.746-1.008 1.629-1.381 2.649v0c-0.459 1.255-0.554 2.304-0.284 3.147 0.27 0.843 0.707 1.375 1.312 1.596v0c0.58 0.212 1.17 0.139 1.771-0.219 0.594-0.361 1.404-1.191 2.429-2.492v0c1.68-2.102 3.176-3.448 4.49-4.037 1.314-0.589 2.697-0.617 4.15-0.086v0c1.695 0.62 2.784 1.792 3.266 3.515 0.48 1.729 0.299 3.744-0.542 6.044z" fill="#dceada" data-fill-palette-color="primary"></path><path d="M1.412 141.427c0-5.712 4.63-10.342 10.342-10.342 5.712 0 10.342 4.63 10.343 10.342 0 5.712-4.63 10.342-10.343 10.342-5.712 0-10.342-4.63-10.342-10.342z" fill="#dceada" data-fill-palette-color="primary"></path><path d="M257.903 141.427c0-5.712 4.63-10.342 10.343-10.342 5.712 0 10.342 4.63 10.342 10.342 0 5.712-4.63 10.342-10.342 10.342-5.712 0-10.342-4.63-10.343-10.342z" fill="#dceada" data-fill-palette-color="primary"></path></g><g id="text-1"></g></svg></g></svg></g></svg></g><g></g></svg></g><defs></defs></svg><rect width="280" height="280" fill="none" stroke="none" visibility="hidden"></rect></g></svg></g></svg>